REM DIRINDEX 1\2\5,1\2\6,1\2\7,1\2\8,1\3\9,1\3\10,1\3\11,1\4\12,1\4\13,1\4\14,1\4\15,1\4\16
REM DIRNAME cjc034,folder01,folder02,folder03,folder04,folder05,folder06,folder07,folder08,folder09,folder10,folder11,folder12,folder13,folder14,folder15
TITLE ""
FILE "1200_2_sec02_0261_0275.mp3" MP3
  TRACK 01 AUDIO
    TITLE "0:"
    INDEX 01 00:00:00
  TRACK 02 AUDIO
    TITLE "11:cjc034_00536"
    INDEX 01 00:00:15
  TRACK 03 AUDIO
    TITLE "0:"
    INDEX 01 00:03:66
  TRACK 04 AUDIO
    TITLE "11:cjc034_00537"
    INDEX 01 00:04:44
  TRACK 05 AUDIO
    TITLE "0:"
    INDEX 01 00:06:16
  TRACK 06 AUDIO
    TITLE "10:cjc034_00538"
    INDEX 01 00:07:23
  TRACK 07 AUDIO
    TITLE "0:"
    INDEX 01 00:08:50
  TRACK 08 AUDIO
    TITLE "9:cjc034_00539"
    INDEX 01 00:08:56
  TRACK 09 AUDIO
    TITLE "0:"
    INDEX 01 00:10:06
  TRACK 10 AUDIO
    TITLE "10:cjc034_00540"
    INDEX 01 00:10:59
  TRACK 11 AUDIO
    TITLE "0:"
    INDEX 01 00:13:49
  TRACK 12 AUDIO
    TITLE "9:cjc034_00541"
    INDEX 01 00:13:57
  TRACK 13 AUDIO
    TITLE "0:"
    INDEX 01 00:14:74
  TRACK 14 AUDIO
    TITLE "10:cjc034_00542"
    INDEX 01 00:15:58
  TRACK 15 AUDIO
    TITLE "0:"
    INDEX 01 00:16:73
  TRACK 16 AUDIO
    TITLE "9:cjc034_00543"
    INDEX 01 00:17:04
  TRACK 17 AUDIO
    TITLE "0:"
    INDEX 01 00:18:19
  TRACK 18 AUDIO
    TITLE "10:cjc034_00544"
    INDEX 01 00:19:05
  TRACK 19 AUDIO
    TITLE "0:"
    INDEX 01 00:20:16
  TRACK 20 AUDIO
    TITLE "9:cjc034_00545"
    INDEX 01 00:20:24
  TRACK 21 AUDIO
    TITLE "0:"
    INDEX 01 00:21:39
  TRACK 22 AUDIO
    TITLE "10:cjc034_00546"
    INDEX 01 00:22:21
  TRACK 23 AUDIO
    TITLE "0:"
    INDEX 01 00:23:53
  TRACK 24 AUDIO
    TITLE "9:cjc034_00547"
    INDEX 01 00:23:57
  TRACK 25 AUDIO
    TITLE "0:"
    INDEX 01 00:24:61
  TRACK 26 AUDIO
    TITLE "10:cjc034_00548"
    INDEX 01 00:25:45
  TRACK 27 AUDIO
    TITLE "0:"
    INDEX 01 00:27:04
  TRACK 28 AUDIO
    TITLE "9:cjc034_00549"
    INDEX 01 00:27:08
  TRACK 29 AUDIO
    TITLE "0:"
    INDEX 01 00:28:29
  TRACK 30 AUDIO
    TITLE "10:cjc034_00550"
    INDEX 01 00:29:13
  TRACK 31 AUDIO
    TITLE "0:"
    INDEX 01 00:30:46
  TRACK 32 AUDIO
    TITLE "9:cjc034_00551"
    INDEX 01 00:30:52
  TRACK 33 AUDIO
    TITLE "0:"
    INDEX 01 00:31:71
  TRACK 34 AUDIO
    TITLE "10:cjc034_00552"
    INDEX 01 00:32:54
  TRACK 35 AUDIO
    TITLE "0:"
    INDEX 01 00:34:10
  TRACK 36 AUDIO
    TITLE "9:cjc034_00553"
    INDEX 01 00:34:16
  TRACK 37 AUDIO
    TITLE "0:"
    INDEX 01 00:35:23
  TRACK 38 AUDIO
    TITLE "10:cjc034_00554"
    INDEX 01 00:36:05
  TRACK 39 AUDIO
    TITLE "0:"
    INDEX 01 00:37:01
  TRACK 40 AUDIO
    TITLE "9:cjc034_00555"
    INDEX 01 00:37:07
  TRACK 41 AUDIO
    TITLE "0:"
    INDEX 01 00:38:08
  TRACK 42 AUDIO
    TITLE "10:cjc034_00556"
    INDEX 01 00:38:65
  TRACK 43 AUDIO
    TITLE "0:"
    INDEX 01 00:40:01
  TRACK 44 AUDIO
    TITLE "9:cjc034_00557"
    INDEX 01 00:40:07
  TRACK 45 AUDIO
    TITLE "0:"
    INDEX 01 00:41:06
  TRACK 46 AUDIO
    TITLE "10:cjc034_00558"
    INDEX 01 00:41:63
  TRACK 47 AUDIO
    TITLE "0:"
    INDEX 01 00:45:08
  TRACK 48 AUDIO
    TITLE "9:cjc034_00559"
    INDEX 01 00:45:12
  TRACK 49 AUDIO
    TITLE "0:"
    INDEX 01 00:46:19
  TRACK 50 AUDIO
    TITLE "10:cjc034_00560"
    INDEX 01 00:47:03
  TRACK 51 AUDIO
    TITLE "0:"
    INDEX 01 00:48:20
  TRACK 52 AUDIO
    TITLE "9:cjc034_00561"
    INDEX 01 00:48:28
  TRACK 53 AUDIO
    TITLE "0:"
    INDEX 01 00:49:25
  TRACK 54 AUDIO
    TITLE "10:cjc034_00562"
    INDEX 01 00:50:05
  TRACK 55 AUDIO
    TITLE "0:"
    INDEX 01 00:52:26
  TRACK 56 AUDIO
    TITLE "9:cjc034_00563"
    INDEX 01 00:52:28
  TRACK 57 AUDIO
    TITLE "0:"
    INDEX 01 00:53:43
  TRACK 58 AUDIO
    TITLE "10:cjc034_00564"
    INDEX 01 00:54:30
  TRACK 59 AUDIO
    TITLE "0:"
    INDEX 01 00:55:57
  TRACK 60 AUDIO
    TITLE "9:cjc034_00565"
    INDEX 01 00:55:61
  TRACK 61 AUDIO
    TITLE "0:"
    INDEX 01 00:57:05
  TRACK 62 AUDIO
    TITLE "10:cjc034_00566"
    INDEX 01 00:57:60
  TRACK 63 AUDIO
    TITLE "0:"
    INDEX 01 01:00:23
  TRACK 64 AUDIO
    TITLE "9:cjc034_00567"
    INDEX 01 01:00:29
  TRACK 65 AUDIO
    TITLE "0:"
    INDEX 01 01:01:46
